<svg id="Layer_1" data-name="Layer 1" xmlns="http://www.w3.org/2000/svg" viewBox="0 0 2438.4 462.83"><defs><style>.cls-1{fill:#70b62b;}</style></defs><title>Artboard 1@1x</title><path d="M95.2,181.9,79.4,427.2H0c.5-8.1.8-16.4,1.4-24.6C3.2,375,5.1,347.5,7,319.9q3.45-50.1,6.7-100.2l5.4-82.2c2-30.6,4.1-61.1,6-91.7.2-3.1,1.5-3.8,4.4-3.8,28.7.1,57.3.1,86-.1,3.8,0,4.3,2.4,5.2,4.8l58.2,153c9,23.8,18.1,47.5,27.1,71.3.5,1.3,1.2,2.6,2.2,4.8,4.2-10.4,8-19.9,11.7-29.4L298.8,46.9c1.5-3.7,3.2-5,7.2-4.9,26.3.2,52.7.1,79,.1,1.8,0,3.6.2,5.6.2l25.7,384.9H336.8L321,181.9l-.8-.2a32.3,32.3,0,0,0-2,4.2Q278.75,284,239.4,382.2c-1.6,4-3.3,5.6-7.8,5.5-16-.3-32-.2-48,0-3.4,0-4.9-1-6.2-4.1Q138.25,285.8,99,188.1c-.9-2.1-1.8-4.2-2.7-6.4Z"/><path d="M901,281.3V42.4h86.5V427.5h-5.4c-22.2,0-44.3-.1-66.5.1-3.9,0-6.2-1.1-8.4-4.5q-74.1-119-148.5-237.6c-.9-1.4-1.8-2.8-3.5-5.3v247h-87V42h4.9c24.7,0,49.3.1,74-.1,3.4,0,5.3,1,7.1,4q71.55,115.2,143.2,230.4C898.4,277.6,899.3,278.9,901,281.3Z"/><path d="M1550.5,271.4l-8.2,11.3c-13.7,18.7-27.4,37.3-40.8,56.2a17.9,17.9,0,0,0-3.1,9.5c-.2,24.2-.1,48.3-.1,72.5v6.3h-86.9V422q0-187-.1-374c0-4.8,1.2-6.2,6.1-6.1,25,.2,50,.1,75,.1h5.9V222.9l1.1.5c1-1.3,2.1-2.6,3.1-4L1628.2,46.3c2.3-3.2,4.6-4.4,8.6-4.4,24.8.2,49.7.1,74.5.1h6.4c-1.7,2.4-2.7,3.8-3.7,5.3q-51.45,70.5-102.8,140.9c-3.5,4.8-3.9,8.2-1.2,13.6q41.55,83.25,82.6,166.9c9.1,18.4,18.1,36.7,27.2,55.1.5,1,.9,2.1,1.6,3.7-1.9.1-3.3.2-4.7.2q-43.5,0-87,.1c-3.3,0-4.9-.9-6.4-4q-34.8-73.8-70-147.4C1552.4,274.7,1551.5,273.3,1550.5,271.4Z"/><path d="M1077.3,427.3V42h5.6q119,0,238-.1c4.4,0,6,1,5.9,5.7-.3,19.2-.1,38.3-.1,57.5,0,1.6-.1,3.3-.2,5.5H1164.3v89.9h135.2c.1,2.2.2,3.8.3,5.4,0,19.3-.1,38.7.1,58,.1,4.6-1.5,5.5-5.7,5.5q-61.8-.15-123.5-.1h-6.3v89.5h162.1v68.5Z"/><path d="M1989.2,428.8a194.37,194.37,0,0,1-67,7.4c-47.7-3.1-89.6-20.5-124.7-53-39.7-36.9-61.6-82.7-64.6-136.9-3.2-59.8,16.5-111.5,58.6-153.8,37.5-37.7,83.5-57.4,136.9-58.8,92.9-2.5,174.9,57.8,199.7,146.8.9,3.1.6,5.2-1.8,7.5q-38.25,35.85-76.4,71.9a2.18,2.18,0,0,1-.8.5c.6-9.9,2-20.1,1.7-30.2-1.2-54.4-44.4-102.8-98.2-110.7-65.6-9.5-124,33.2-134.5,98.2-9.7,60.4,32.4,120.6,92.6,131.8,9.1,1.7,18.5,1.4,27.8,2.3,1.8.2,4.4.9,5.3,2.2,15.1,24.3,30,48.8,45,73.2A5.35,5.35,0,0,1,1989.2,428.8Z"/><path class="cls-1" d="M2438.4,0,2032.3,451.2l-148-241.8c2.7-.1,4.2-.3,5.8-.3q34.5,0,69-.1a9.6,9.6,0,0,1,8.2,3.6c23.8,28.3,47.8,56.5,71.7,84.7,1.6,1.9,3.3,3.6,5.4,5.8,6.3-5.8,12.2-11.3,18.1-16.9q108.75-102.45,217.6-204.9,41.55-39,83-78.1c1.7-1.6,4.2-3.1,6.4-3.1C2392-.1,2414.5,0,2438.4,0Z"/><path d="M494.4,42.2h86v385h-86V42.2Z"/></svg>